<svg width="170" height="39" viewBox="0 0 170 39" fill="none" xmlns="http://www.w3.org/2000/svg">
<path fill-rule="evenodd" clip-rule="evenodd" d="M38.5713 32.5002C38.5714 33.3539 38.4051 34.1993 38.082 34.988C37.7589 35.7767 37.2853 36.4933 36.6883 37.0969C36.0912 37.7005 35.3824 38.1793 34.6024 38.5058C33.8223 38.8323 32.9862 39.0003 32.142 39H6.42799C5.5837 39.0002 4.74764 38.8321 3.96759 38.5055C3.18755 38.1788 2.4788 37.6999 1.88186 37.0962C1.28491 36.4924 0.811462 35.7757 0.488565 34.9869C0.165668 34.198 -0.000348856 33.3526 5.50385e-07 32.4989V6.50045C-8.67974e-05 5.64672 0.166158 4.80133 0.489239 4.01257C0.81232 3.22382 1.28591 2.50715 1.88295 1.9035C2.48 1.29985 3.1888 0.821052 3.96888 0.494444C4.74895 0.167837 5.58502 -0.000176475 6.42932 1.39097e-07H32.142C32.9862 -8.81646e-05 33.8222 0.167991 34.6022 0.494637C35.3822 0.821284 36.0909 1.3001 36.6879 1.90374C37.2849 2.50738 37.7584 3.22402 38.0815 4.01273C38.4045 4.80144 38.5707 5.64677 38.5706 6.50045V32.5009L38.5713 32.5002Z" fill="#71B62D"/>
<path fill-rule="evenodd" clip-rule="evenodd" d="M27.5018 21.8726C25.9943 21.9415 24.5711 22.5955 23.5284 23.6986C22.4857 24.8017 21.9038 26.2689 21.9038 27.7948C21.9038 29.3208 22.4857 30.7879 23.5284 31.891C24.5711 32.9941 25.9943 33.6482 27.5018 33.7171C29.0094 33.6482 30.4326 32.9941 31.4753 31.891C32.518 30.7879 33.0999 29.3208 33.0999 27.7948C33.0999 26.2689 32.518 24.8017 31.4753 23.6986C30.4326 22.5955 29.0094 21.9415 27.5018 21.8726Z" fill="#FEFEFE"/>
<path fill-rule="evenodd" clip-rule="evenodd" d="M23.8019 35.7289H20.1584C18.3135 33.5537 16.835 31.0864 15.7822 28.4257C14.7041 25.5777 14.1743 22.5475 14.2211 19.4983C14.1749 16.4509 14.7048 13.4226 15.7822 10.5762C16.8345 7.91581 18.3131 5.44884 20.1584 3.27441H23.8019V3.43845C22.9017 4.28865 22.0784 5.21856 21.3419 6.21706C20.5028 7.36572 19.7758 8.59392 19.1711 9.88445C18.5078 11.3184 17.9888 12.8162 17.6219 14.3552C17.2171 16.0396 17.0162 17.7676 17.0236 19.501C17.0066 21.2392 17.2017 22.973 17.6047 24.6629C17.9819 26.1959 18.5072 27.6878 19.1731 29.1169C19.7748 30.4115 20.5051 31.6409 21.3525 32.7863C22.0844 33.7858 22.9042 34.7162 23.8019 35.5662V35.7289Z" fill="#FEFEFE"/>
<path fill-rule="evenodd" clip-rule="evenodd" d="M3.62713 23.6875V19.9105C5.71092 18.0125 8.09475 16.4813 10.6794 15.3806C13.414 14.2678 16.3409 13.7192 19.2882 13.767C22.2369 13.7219 25.1648 14.2735 27.8997 15.3893C30.4833 16.4931 32.8656 18.0273 34.9473 19.928V23.707H34.7904C33.9755 22.7764 33.0784 21.9228 32.1103 21.1569C31.0048 20.2879 29.8171 19.5315 28.5645 18.8987C27.1865 18.212 25.7415 17.6724 24.2528 17.2885C22.6312 16.8692 20.9633 16.6605 19.2895 16.6673C17.6103 16.6507 15.9359 16.8541 14.3083 17.2724C12.8241 17.6619 11.3835 18.2049 10.0092 18.8926C7.65127 20.0765 5.53875 21.7051 3.78537 23.6908L3.62646 23.6868L3.62713 23.6875Z" fill="#FEFEFE"/>
<path fill-rule="evenodd" clip-rule="evenodd" d="M53.1804 11.4945H48.2064V18.4874H53.1776C55.3556 18.4874 56.8977 17.3361 56.8977 15.0031C56.8977 12.6702 55.3556 11.4945 53.1776 11.4945H53.1804ZM56.9262 28.7546L52.6851 20.2836H48.2064V28.7527H46.21V9.66727H53.3601C56.6058 9.66727 58.8846 11.6793 58.8846 14.974C58.9411 16.1889 58.5586 17.3826 57.8099 18.3276C57.0612 19.2725 55.9988 19.9027 54.8251 20.0978L59.2478 28.7527H56.9252L56.9262 28.7546ZM70.4983 19.0301C70.2356 18.438 69.8118 17.9359 69.2775 17.5837C68.7433 17.2316 68.1211 17.0443 67.4855 17.0443C66.8499 17.0443 66.2278 17.2316 65.6935 17.5837C65.1592 17.9359 64.7354 18.438 64.4728 19.0301C64.1978 19.7276 64.0643 20.475 64.0801 21.2269H70.8862C70.9022 20.4755 70.7706 19.7285 70.4992 19.0301H70.4983ZM64.083 22.668C64.083 25.563 65.414 27.2269 67.8858 27.2269C68.523 27.2522 69.1576 27.1303 69.7424 26.8702C70.3272 26.61 70.8471 26.2184 71.2636 25.7245L72.5356 26.8739C71.9506 27.5549 71.223 28.0921 70.4069 28.4457C69.5908 28.7993 68.7073 28.96 67.8221 28.9161C64.4233 28.9161 62.194 26.8224 62.194 22.1614C62.194 17.9011 64.2142 15.4057 67.4865 15.4057C70.8139 15.4057 72.7752 17.8729 72.7752 21.785V22.668H64.083ZM79.2475 17.125V28.7546H77.3604V17.1211H75.7071V15.6488H77.3604V13.1535C77.3604 11.1989 78.4299 9.6167 80.6327 9.6167H81.995V11.2796H80.9711C79.7656 11.2796 79.2446 12.0021 79.2446 13.208V15.6469H81.9941V17.1211H79.2446L79.2475 17.125ZM88.2791 28.7556C86.0278 28.7556 85.0087 27.2551 85.0087 25.2431V9.66727H86.8892V25.1614C86.8892 26.447 87.3103 27.0888 88.6166 27.0888H89.6443V28.7527L88.2791 28.7556ZM111.826 28.918C108.579 28.918 106.122 26.6648 106.122 22.1633C106.122 17.6618 108.584 15.4086 111.826 15.4086C112.634 15.3681 113.44 15.5241 114.178 15.8639C114.915 16.2037 115.564 16.7175 116.07 17.3633L114.785 18.5964C114.445 18.1248 113.998 17.7445 113.483 17.4881C112.967 17.2317 112.399 17.1068 111.826 17.1241C111.245 17.1 110.667 17.2245 110.146 17.4864C109.624 17.7482 109.174 18.1391 108.837 18.6236C108.185 19.6773 107.891 20.9213 107.999 22.1633C107.891 23.4038 108.185 24.6462 108.837 25.6982C109.173 26.1836 109.623 26.5753 110.145 26.8376C110.667 27.0998 111.245 27.2243 111.826 27.1997C112.401 27.2112 112.97 27.0806 113.485 26.8191C114.001 26.5575 114.447 26.1727 114.785 25.6972L116.07 26.9614C115.564 27.6079 114.916 28.1224 114.178 28.4627C113.44 28.803 112.634 28.9584 111.826 28.918ZM123.891 28.7566C123.438 28.7791 122.986 28.7019 122.565 28.53C122.144 28.3581 121.764 28.0956 121.451 27.7603C121.138 27.4251 120.899 27.0249 120.751 26.5868C120.602 26.1488 120.548 25.6833 120.59 25.2217V17.1211H118.964V15.6488H120.59V11.5208H122.474V15.6518H125.225V17.1231H122.474V25.1624C122.474 26.3702 123.025 27.0898 124.228 27.0898H125.225V28.7537H123.894L123.891 28.7566Z" fill="white"/>
<path fill-rule="evenodd" clip-rule="evenodd" d="M127.966 28.7463H129.862V15.5497H127.966V28.7463ZM127.859 11.7894H129.998V9.6167H127.859V11.7894ZM140.553 18.0708C140.24 17.7581 139.868 17.5115 139.461 17.3455C139.053 17.1794 138.617 17.0971 138.178 17.1033C137.742 17.098 137.309 17.1808 136.905 17.3469C136.501 17.513 136.134 17.7591 135.824 18.0708C134.871 19.0326 134.77 20.6699 134.77 22.1465C134.77 23.6232 134.871 25.2615 135.824 26.2242C136.134 26.5351 136.502 26.7805 136.906 26.9462C137.31 27.112 137.742 27.1948 138.178 27.1898C138.617 27.1956 139.053 27.1133 139.46 26.9476C139.868 26.7819 140.239 26.5361 140.553 26.2242C141.504 25.2595 141.585 23.6203 141.585 22.1465C141.585 20.6728 141.504 19.0316 140.553 18.0708ZM141.902 27.4049C140.895 28.3702 139.563 28.908 138.179 28.908C136.794 28.908 135.462 28.3702 134.455 27.4049C133.132 26.0422 132.87 24.1859 132.87 22.1485C132.87 20.1111 133.132 18.2548 134.455 16.892C135.462 15.9263 136.794 15.3883 138.179 15.3883C139.563 15.3883 140.895 15.9263 141.902 16.892C143.217 18.2548 143.485 20.1111 143.485 22.1485C143.485 24.1859 143.218 26.0422 141.902 27.4049ZM154.832 28.7463V20.6183C154.832 18.2821 153.592 17.1033 151.637 17.1033C149.681 17.1033 148.42 18.3103 148.42 20.6173V28.7463H146.516V15.5497H148.421V16.9913C148.875 16.4688 149.436 16.0542 150.066 15.7768C150.695 15.4994 151.377 15.366 152.063 15.3861C152.671 15.356 153.278 15.4497 153.85 15.6617C154.421 15.8737 154.945 16.1997 155.391 16.6204C155.853 17.105 156.211 17.6819 156.442 18.3145C156.673 18.9471 156.772 19.6216 156.733 20.2951V28.7463H154.832ZM164.721 28.9089C163.751 28.975 162.779 28.84 161.862 28.5119C160.946 28.1839 160.105 27.6698 159.39 27.001L160.655 25.7131C161.186 26.2407 161.819 26.6495 162.515 26.9134C163.211 27.1773 163.953 27.2904 164.694 27.2453C166.835 27.2453 168.154 26.4666 168.154 24.9091C168.154 23.7527 167.491 23.1083 165.992 22.9759L163.851 22.7812C161.318 22.5661 159.97 21.4184 159.97 19.2389C159.97 16.8258 161.976 15.3793 164.745 15.3793C166.418 15.2969 168.069 15.7984 169.423 16.8005L168.177 18.066C167.172 17.3319 165.954 16.962 164.717 17.0157C162.813 17.0157 161.813 17.8489 161.813 19.1893C161.813 20.3155 162.447 20.9901 164.084 21.1196L166.17 21.3065C168.437 21.5236 170 22.4064 170 24.877C170 27.4273 167.861 28.903 164.717 28.903" fill="white"/>
<path fill-rule="evenodd" clip-rule="evenodd" d="M94.1706 21.3404H100.955C100.972 20.5993 100.839 19.8624 100.564 19.1754C100.302 18.5935 99.8801 18.1001 99.3486 17.7541C98.8172 17.4082 98.1985 17.2242 97.5666 17.2242C96.9346 17.2242 96.316 17.4082 95.7845 17.7541C95.2531 18.1001 94.8312 18.5935 94.5692 19.1754C94.2929 19.8624 94.1573 20.5989 94.1706 21.3404ZM92.3018 22.7669V21.8942C92.3018 18.0393 94.2549 15.6089 97.5666 15.6089C100.829 15.6089 102.837 18.069 102.837 22.263C102.837 26.8613 100.617 28.918 97.2286 28.918C96.3468 28.9616 95.4665 28.8034 94.6535 28.4551C93.8405 28.1068 93.1156 27.5774 92.5328 26.9063L93.809 25.7749C94.2243 26.2604 94.7423 26.6451 95.3247 26.9003C95.907 27.1555 96.5386 27.2748 97.1727 27.2492C99.6267 27.2492 100.96 25.614 100.96 22.765L92.3018 22.7669Z" fill="#71B62D"/>
</svg>
